<?xml version="1.0" standalone="no"?>
<!DOCTYPE svg PUBLIC "-//W3C//DTD SVG 20010904//EN"
 "http://www.w3.org/TR/2001/REC-SVG-20010904/DTD/svg10.dtd">
<svg version="1.0" xmlns="http://www.w3.org/2000/svg"
 width="478.000000pt" height="477.000000pt" viewBox="0 0 478.000000 477.000000"
 preserveAspectRatio="xMidYMid meet">

<g transform="translate(0.000000,477.000000) scale(0.100000,-0.100000)"
fill="#000000" stroke="none">
<path d="M1180 1500 c0 -6 -36 -10 -88 -10 -76 0 -89 -3 -102 -20 -8 -11 -22
-20 -32 -20 -10 0 -18 -4 -18 -10 0 -5 -9 -10 -20 -10 -11 0 -20 -4 -20 -10 0
-5 -7 -10 -15 -10 -8 0 -49 -34 -90 -75 -41 -41 -75 -81 -75 -90 0 -8 -4 -15
-10 -15 -5 0 -10 -12 -10 -26 0 -16 -12 -37 -30 -54 -18 -17 -30 -38 -30 -54
0 -14 -4 -26 -10 -26 -6 0 -10 -33 -10 -80 0 -47 -4 -80 -10 -80 -6 0 -10 -37
-10 -91 0 -99 9 -119 54 -119 14 0 26 -4 26 -10 0 -5 14 -10 30 -10 17 0 30
-4 30 -10 0 -5 23 -10 50 -10 28 0 50 -4 50 -10 0 -5 14 -10 30 -10 17 0 30
-4 30 -10 0 -5 9 -10 20 -10 11 0 20 -4 20 -10 0 -5 14 -10 30 -10 17 0 30 -4
30 -10 0 -5 18 -10 40 -10 22 0 40 -4 40 -10 0 -5 14 -10 30 -10 17 0 30 -4
30 -10 0 -5 18 -10 40 -10 22 0 40 -4 40 -10 0 -5 18 -10 40 -10 22 0 40 -4
40 -10 0 -6 33 -10 80 -10 47 0 80 -4 80 -10 0 -5 14 -10 30 -10 17 0 30 -4
30 -10 0 -5 14 -10 30 -10 17 0 30 -4 30 -10 0 -5 23 -10 50 -10 28 0 50 -4
50 -10 0 -5 13 -10 29 -10 16 0 32 -6 34 -12 4 -10 6 -10 6 0 1 15 91 17 91 2
0 -5 14 -10 30 -10 17 0 30 -4 30 -10 0 -6 27 -10 60 -10 33 0 60 -4 60 -10 0
-6 33 -10 80 -10 47 0 80 -4 80 -10 0 -6 40 -10 100 -10 60 0 100 -4 100 -10
0 -6 83 -10 230 -10 147 0 230 4 230 10 0 6 37 10 90 10 53 0 90 4 90 10 0 6
23 10 50 10 28 0 50 5 50 10 0 6 14 10 30 10 17 0 30 5 30 10 0 6 18 10 40 10
22 0 40 5 40 10 0 6 14 10 30 10 17 0 30 5 30 10 0 6 13 10 28 10 16 0 34 8
42 20 8 12 26 20 42 20 15 0 28 5 28 10 0 6 7 10 16 10 8 0 33 18 54 40 21 22
45 40 52 40 7 0 20 9 28 20 8 11 20 20 27 20 16 0 123 105 123 120 0 6 22 33
50 60 27 27 50 55 50 62 0 8 9 20 20 28 11 8 20 21 20 30 0 9 9 22 20 30 11 8
20 26 20 40 0 14 9 32 20 40 14 10 20 26 20 50 0 24 6 40 20 50 12 8 20 26 20
42 0 15 5 28 10 28 6 0 10 9 10 20 0 11 5 20 10 20 6 0 10 18 10 40 0 22 5 40
10 40 14 0 12 19 -3 35 -12 11 -16 10 -28 -6 -7 -10 -21 -19 -31 -19 -10 0
-18 -4 -18 -10 0 -5 -9 -10 -20 -10 -11 0 -20 -4 -20 -10 0 -5 -8 -10 -18 -10
-10 0 -24 -9 -32 -20 -8 -12 -26 -20 -42 -20 -15 0 -28 -4 -28 -10 0 -5 -9
-10 -20 -10 -11 0 -20 -4 -20 -10 0 -6 -27 -10 -60 -10 -33 0 -60 -4 -60 -10
0 -5 -9 -10 -20 -10 -11 0 -20 -4 -20 -10 0 -5 -18 -10 -40 -10 -22 0 -40 -4
-40 -10 0 -6 -95 -10 -265 -10 -170 0 -265 4 -265 10 0 6 -33 10 -80 10 -47 0
-80 4 -80 10 0 6 -27 10 -60 10 -33 0 -60 4 -60 10 0 6 -18 10 -40 10 -22 0
-40 5 -40 10 0 6 -9 10 -20 10 -11 0 -20 5 -20 10 0 6 -32 10 -75 10 -43 0
-75 4 -75 10 0 6 -13 10 -30 10 -16 0 -30 5 -30 10 0 6 -9 10 -20 10 -11 0
-20 5 -20 10 0 6 -33 10 -80 10 -47 0 -80 4 -80 10 0 6 -13 10 -30 10 -16 0
-30 5 -30 10 0 6 -9 10 -20 10 -11 0 -20 5 -20 10 0 6 -13 10 -30 10 -16 0
-30 5 -30 10 0 6 -18 10 -40 10 -22 0 -40 5 -40 10 0 6 -13 10 -30 10 -16 0
-30 5 -30 10 0 6 -27 10 -60 10 -33 0 -60 4 -60 10 0 6 -13 10 -30 10 -16 0
-30 5 -30 10 0 6 -33 10 -80 10 -47 0 -80 4 -80 10 0 6 -9 10 -20 10 -11 0
-20 5 -20 10 0 6 -65 10 -175 10 -110 0 -175 -4 -175 -10z"/>
</g>
</svg>
