<?xml version="1.0" standalone="no"?>
<!DOCTYPE svg PUBLIC "-//W3C//DTD SVG 20010904//EN"
 "http://www.w3.org/TR/2001/REC-SVG-20010904/DTD/svg10.dtd">
<svg version="1.0" xmlns="http://www.w3.org/2000/svg"
 width="1411.000000pt" height="319.000000pt" viewBox="0 0 1411.000000 319.000000"
 preserveAspectRatio="xMidYMid meet">

<g transform="translate(0.000000,319.000000) scale(0.100000,-0.100000)"
fill="#000000" stroke="none">
<path d="M0 1595 l0 -1595 7055 0 7055 0 0 1595 0 1595 -7055 0 -7055 0 0
-1595z m3410 215 l0 -1060 -182 0 -183 0 0 1060 0 1060 183 0 182 0 0 -1060z
m-2150 990 c30 -5 91 -14 135 -20 44 -6 118 -21 165 -32 47 -11 99 -22 115
-24 17 -2 64 -14 105 -25 198 -56 272 -81 276 -94 10 -25 -25 -178 -54 -234
-75 -148 -253 -187 -532 -116 -58 15 -121 31 -140 35 -19 4 -89 22 -155 39
-164 43 -255 61 -350 67 -44 3 -85 7 -91 9 -23 7 -183 -15 -244 -34 -36 -11
-87 -34 -114 -51 -26 -17 -51 -29 -54 -26 -7 8 15 79 43 141 102 226 274 347
530 376 82 9 285 3 365 -11z m3430 -460 l0 -330 498 2 497 3 0 328 0 327 183
0 182 0 0 -845 0 -845 -182 0 -183 0 0 327 0 328 -497 3 -498 2 0 -330 0 -330
-185 0 -185 0 0 845 0 845 185 0 185 0 0 -330z m1990 -500 l0 -500 328 2 327
3 3 498 2 497 180 0 181 0 -3 -547 -3 -548 -29 -62 c-33 -72 -97 -137 -171
-173 l-50 -25 -440 0 c-433 0 -441 0 -488 22 -70 33 -140 103 -173 176 l-29
62 -3 548 -3 547 186 0 185 0 0 -500z m2455 468 c58 -30 124 -97 155 -157 35
-70 41 -171 38 -681 l-3 -485 -565 0 c-558 0 -566 0 -612 22 -54 25 -128 90
-159 139 -42 69 -49 123 -49 417 l0 277 510 0 510 0 0 70 0 70 -510 0 -510 0
0 180 0 181 573 -3 572 -3 50 -27z m775 -468 l0 -500 330 0 330 0 0 500 0 500
180 0 180 0 -2 -802 -3 -803 -23 -46 c-36 -74 -87 -125 -160 -161 l-67 -33
-457 -3 -458 -3 0 181 0 180 405 0 405 0 0 65 0 64 -382 3 -383 3 -56 27 c-72
36 -135 98 -168 168 l-26 55 -3 553 -2 552 180 0 180 0 0 -500z m2320 320 l0
-180 -370 0 -370 0 0 -500 0 -500 -180 0 -181 0 3 553 c3 543 3 553 25 599 40
87 136 172 223 199 14 4 211 8 438 8 l412 1 0 -180z m1385 148 c58 -30 124
-97 155 -157 35 -70 41 -171 38 -681 l-3 -485 -565 0 c-558 0 -566 0 -612 22
-54 25 -128 90 -159 139 -42 69 -49 123 -49 417 l0 277 510 0 510 0 0 70 0 70
-510 0 -510 0 0 180 0 181 573 -3 572 -3 50 -27z m-12805 -153 c30 -4 75 -14
99 -21 24 -8 68 -17 98 -19 30 -3 62 -9 71 -14 23 -12 387 -89 457 -96 22 -2
72 -9 110 -14 98 -14 247 -13 329 3 58 11 75 19 102 48 17 19 33 41 36 49 14
40 104 -109 115 -190 6 -47 -37 -198 -70 -246 -74 -104 -261 -186 -421 -184
-97 0 -287 28 -385 56 -29 8 -68 17 -85 18 -17 2 -67 12 -111 23 -201 51 -487
92 -635 92 -138 0 -238 -39 -254 -97 -4 -13 -10 -23 -14 -23 -20 0 -74 71 -93
121 -27 73 -25 135 7 232 22 67 36 90 77 130 74 72 186 123 297 137 67 8 195
6 270 -5z m-65 -744 c99 -16 222 -44 315 -71 99 -28 174 -47 225 -56 17 -2 37
-7 45 -10 36 -13 194 -35 295 -40 99 -6 120 -4 208 20 59 15 118 39 151 60 30
19 56 32 59 30 8 -8 -30 -112 -66 -181 -71 -139 -174 -230 -332 -294 -11 -5
-49 -16 -85 -25 -121 -31 -467 -19 -604 21 -27 8 -52 12 -57 9 -5 -3 -46 5
-92 17 -45 12 -93 23 -107 24 -47 5 -202 48 -335 93 -49 17 -50 18 -48 57 2
67 12 130 23 156 67 156 207 221 405 190z"/>
<path d="M8307 1523 c-4 -3 -7 -46 -7 -95 l0 -88 330 0 330 0 0 95 0 95 -323
0 c-178 0 -327 -3 -330 -7z"/>
<path d="M12787 1523 c-4 -3 -7 -46 -7 -95 l0 -88 330 0 330 0 0 95 0 95 -323
0 c-178 0 -327 -3 -330 -7z"/>
</g>
</svg>
